# xmcd
# Track frame offsets:
# 150
# 14809
# 30842
# 42069
# 53236
# 64778
# 77314
# 90765
# 102889
# 116951
# 130298
# 146286
# 163721
# 173780
# 184717
# 197211
# 207574
# 221641
# 236292
# 247570
#
# Disc length: 3418 seconds
# Revision: 0
# Processed by: cddbd v1.4PL0 Copyright (c) Steve Scherf et al.
# Submitted via: VisiTrax 2.9.5.181 - For more info visit www.synapsa.com
#
DISCID=040d5814
DTITLE=Various Artist - Country Love Classics
DYEAR=2000
DGENRE=
TTITLE0=Don Gibson - I Can't Stop Loving You
TTITLE1=Merle Haggard - Today I Started Loving You You Again
TTITLE2=Patsy Cline - Just Out Of Reach
TTITLE3=Bobby Bare - Please Don't Tell Me How The Story Ends
TTITLE4=Eddy Arnold - Bouquet Of Roses
TTITLE5=Hank Thompson - Next Time I Fall In Love (I Won't)
TTITLE6=Miki and Griff - Let Your Love Flow
TTITLE7=Bill Anderson - Tips Of My Fingers
TTITLE8=Holly Dunn - Love Someone Like me
TTITLE9=Charley Pride - I'm So Afraid Of Losing You Again (live)
TTITLE10=Willie Nelson - You Were Always On My Mind (live)
TTITLE11=Don Williams - I Believe In You (live)
TTITLE12=Johnny Cash - If I Were A Carpenter (live)
TTITLE13=Faron Young - Cryin' Time
TTITLE14=George Jones - Don't Be Angry
TTITLE15=Red Sovine - Love Is
TTITLE16=Conway Twitty - You've Never Been This Far Before
TTITLE17=Billie Jo Spears - Crazy
TTITLE18=Kendalls - Heaven's Just A Sin Away
TTITLE19=Sandy Posey - Born A Woman
EXTD=Castle Music
EXTT0=
EXTT1=
EXTT2=
EXTT3=
EXTT4=
EXTT5=
EXTT6=
EXTT7=
EXTT8=
EXTT9=
EXTT10=
EXTT11=
EXTT12=
EXTT13=
EXTT14=
EXTT15=
EXTT16=
EXTT17=
EXTT18=
EXTT19=
PLAYORDER=
